<svg width="897" height="805" viewBox="0 0 897 805" fill="none" xmlns="http://www.w3.org/2000/svg">
<path d="M759.146 15.8123C607.947 -45.5074 470.631 86.6284 433.298 154.411C396.665 264.427 324.239 487.75 327.599 500.91C330.959 514.07 596.631 538.359 734.297 550.259C752.263 530.193 808.916 485.09 827.396 448.41C848.909 405.71 877.561 347.611 888.996 294.061C905.562 216.478 910.346 77.132 759.146 15.8123Z" fill="url(#paint0_linear)"/>
<path d="M93.6868 51.2502C-177.412 280.061 204.169 655.93 425.135 800.246L425.219 800.301C431.995 804.727 435.484 807.006 447.335 800.246C541.834 746.346 764.083 532.409 787.533 503.709C810.983 475.009 822.383 455.148 798.583 484.198C774.783 513.248 675.384 531.448 599.084 434.848C522.784 338.249 536.784 314.799 458.735 154.5C380.685 -5.79954 193.436 -28.1994 93.6868 51.2502Z" fill="url(#paint1_linear)"/>
<defs>
<linearGradient id="paint0_linear" x1="729.397" y1="71.112" x2="419.998" y2="322.411" gradientUnits="userSpaceOnUse">
<stop stop-color="#A078F2"/>
<stop offset="1" stop-color="#3B2664"/>
</linearGradient>
<linearGradient id="paint1_linear" x1="155.399" y1="88.2615" x2="683.196" y2="813.108" gradientUnits="userSpaceOnUse">
<stop offset="0.00129541" stop-color="#FF688F"/>
<stop offset="0.521602" stop-color="#FF104D"/>
</linearGradient>
</defs>
</svg>
