<svg width="263" height="236" viewBox="0 0 263 236" fill="none" xmlns="http://www.w3.org/2000/svg">
<path d="M221.803 5.59921C177.825 -12.2364 137.885 26.197 127.026 45.9125C116.371 77.9122 95.3046 142.868 96.2819 146.696C97.2592 150.524 174.533 157.589 214.575 161.05C219.801 155.213 236.279 142.095 241.654 131.426C247.912 119.006 256.246 102.107 259.571 86.5314C264.39 63.9654 265.781 23.4348 221.803 5.59921Z" stroke="black"/>
<path d="M124.656 233.759C60.3853 191.783 -50.6027 82.4567 28.25 15.9042C57.2634 -7.20473 111.727 -0.68943 134.429 45.9357C157.131 92.5608 153.059 99.3814 175.251 127.479C195.777 153.465 224.631 150.728 233.644 142.98C238.373 136.815 240.725 133.065 235.432 141.005C234.977 141.688 234.376 142.35 233.644 142.98C232.555 144.399 231.34 145.946 230.064 147.508C223.243 155.856 158.599 218.082 131.113 233.759C127.666 235.725 126.651 235.063 124.681 233.775L124.656 233.759Z" fill="black"/>
<path d="M124.656 233.759C60.3853 191.783 -50.6027 82.4567 28.25 15.9042C57.2634 -7.20473 111.727 -0.689431 134.429 45.9357C157.131 92.5608 153.059 99.3814 175.251 127.479C197.444 155.576 229.373 150.094 235.432 141.005C241.944 131.237 236.885 139.16 230.064 147.508C223.243 155.856 158.599 218.082 131.113 233.759C127.652 235.734 126.643 235.057 124.656 233.759Z" stroke="black"/>
</svg>
